<svg width="1000" height="1000" viewBox="0 0 1000 1000" fill="none" xmlns="http://www.w3.org/2000/svg">
<rect width="1000" height="1000" rx="97" fill="#E74C3C"/>
<g filter="url(#filter0_i_7_160)">
<path fill-rule="evenodd" clip-rule="evenodd" d="M1000 446.116C896.767 565.477 744.21 641 574.014 641H424.986C255.339 641 103.217 565.964 0 447.269L0 158.11C0 101.037 0 72.5003 11.6339 50.9389C20.6207 34.2834 34.2834 20.6207 50.9389 11.6339C72.5003 0 101.037 0 158.11 0L841.89 0C898.963 0 927.5 0 949.061 11.6339C965.717 20.6207 979.379 34.2834 988.366 50.9389C1000 72.5003 1000 101.037 1000 158.11L1000 446.116Z" fill="#A1C6DF" fill-opacity="0.37"/>
</g>
<circle cx="500" cy="521" r="290" fill="#D9D9D9" stroke="#E74C3C" stroke-width="20"/>
<path d="M346.72 800C320.831 800 307.887 800 298.106 794.723C290.551 790.646 284.354 784.449 280.277 776.894C275 767.113 275 754.169 275 728.28L275 454.72C275 428.831 275 415.887 280.277 406.106C284.354 398.551 290.551 392.354 298.106 388.277C307.887 383 320.831 383 346.72 383L456 383L456 800H346.72Z" fill="#E74C3C"/>
<path d="M675 977C575.036 977 494 895.964 494 796V636.592C494 623.964 494 617.65 494.902 612.376C499.408 586.038 520.038 565.408 546.376 560.902C551.65 560 557.964 560 570.592 560H675L675 977Z" fill="#E74C3C"/>
<path d="M692 422.051C692 476.699 647.699 521 593.051 521H365.5C315.518 521 275 480.482 275 430.5C275 380.518 315.518 340 365.5 340L692 340V422.051Z" fill="#E74C3C"/>
<defs>
<filter id="filter0_i_7_160" x="0" y="0" width="1000" height="641" filterUnits="userSpaceOnUse" color-interpolation-filters="sRGB">
<feFlood flood-opacity="0" result="BackgroundImageFix"/>
<feBlend mode="normal" in="SourceGraphic" in2="BackgroundImageFix" result="shape"/>
<feColorMatrix in="SourceAlpha" type="matrix" values="0 0 0 0 0 0 0 0 0 0 0 0 0 0 0 0 0 0 127 0" result="hardAlpha"/>
<feOffset dy="-31"/>
<feComposite in2="hardAlpha" operator="arithmetic" k2="-1" k3="1"/>
<feColorMatrix type="matrix" values="0 0 0 0 1 0 0 0 0 1 0 0 0 0 1 0 0 0 0.25 0"/>
<feBlend mode="normal" in2="shape" result="effect1_innerShadow_7_160"/>
</filter>
</defs>
</svg>
