<svg width="1000" height="1000" viewBox="0 0 1000 1000" fill="none" xmlns="http://www.w3.org/2000/svg">
<rect width="1000" height="1000" rx="97" fill="#3498DB"/>
<g filter="url(#filter0_i_7_159)">
<path fill-rule="evenodd" clip-rule="evenodd" d="M1000 446.116C896.767 565.477 744.21 641 574.014 641H424.986C255.339 641 103.217 565.964 0 447.269L0 158.11C0 101.037 0 72.5003 11.6339 50.9389C20.6207 34.2834 34.2834 20.6207 50.9389 11.6339C72.5003 0 101.037 0 158.11 0L841.89 0C898.963 0 927.5 0 949.061 11.6339C965.717 20.6207 979.379 34.2834 988.366 50.9389C1000 72.5003 1000 101.037 1000 158.11L1000 446.116Z" fill="#A1C6DF" fill-opacity="0.37"/>
</g>
<circle cx="500" cy="521" r="290" fill="#D9D9D9" stroke="#3498DB" stroke-width="20"/>
<path d="M373.949 800C319.301 800 275 755.699 275 701.051L275 473.5C275 423.518 315.518 383 365.5 383C415.482 383 456 423.518 456 473.5L456 800H373.949Z" fill="#3498DB"/>
<path d="M675 977C575.036 977 494 895.964 494 796V636.592C494 623.964 494 617.65 494.902 612.376C499.408 586.038 520.038 565.408 546.376 560.902C551.65 560 557.964 560 570.592 560H675L675 977Z" fill="#3498DB"/>
<path d="M692 371.308C692 453.98 624.98 521 542.308 521H339.643C303.942 521 275 492.058 275 456.357C275 392.095 327.095 340 391.357 340L692 340V371.308Z" fill="#3498DB"/>
<defs>
<filter id="filter0_i_7_159" x="0" y="0" width="1000" height="641" filterUnits="userSpaceOnUse" color-interpolation-filters="sRGB">
<feFlood flood-opacity="0" result="BackgroundImageFix"/>
<feBlend mode="normal" in="SourceGraphic" in2="BackgroundImageFix" result="shape"/>
<feColorMatrix in="SourceAlpha" type="matrix" values="0 0 0 0 0 0 0 0 0 0 0 0 0 0 0 0 0 0 127 0" result="hardAlpha"/>
<feOffset dy="-31"/>
<feComposite in2="hardAlpha" operator="arithmetic" k2="-1" k3="1"/>
<feColorMatrix type="matrix" values="0 0 0 0 1 0 0 0 0 1 0 0 0 0 1 0 0 0 0.25 0"/>
<feBlend mode="normal" in2="shape" result="effect1_innerShadow_7_159"/>
</filter>
</defs>
</svg>
